<mxfile host="app.diagrams.net" agent="Mozilla/5.0 (Windows NT 10.0; Win64; x64) AppleWebKit/537.36 (KHTML, like Gecko) Chrome/128.0.0.0 Safari/537.36" version="24.7.7">
  <diagram name="Page-1" id="8378b5f6-a2b2-b727-a746-972ab9d02e00">
    <mxGraphModel dx="2938.5" dy="627" grid="1" gridSize="10" guides="1" tooltips="1" connect="0" arrows="1" fold="1" page="1" pageScale="1.5" pageWidth="1169" pageHeight="827" background="none" math="0" shadow="0">
      <root>
        <mxCell id="0" />
        <mxCell id="1" parent="0" />
        <mxCell id="75" value="    - 신버전 브랜치 화&#xa;    - 구버전 살리기&#xa;&#xa;    - pair programming&#xa;    = testbed [오늘 오후]&#xa;        - tbb/omp&#xa;&#xa;    = multi processing&#xa;    - 테스트 시나리오&#xa;    = 물류센터 테스트&#xa;&#xa;    - 이론 공부&#xa;    - 디버깅&#xa;" style="align=left;strokeColor=#DEEDFF;verticalAlign=top;" parent="1" vertex="1">
          <mxGeometry y="200" width="320" height="210" as="geometry" />
        </mxCell>
        <mxCell id="2" value="준혁" style="fillColor=#23445D;strokeColor=#FFFFFF;strokeWidth=2;fontColor=#FFFFFF;fontStyle=1" parent="1" vertex="1">
          <mxGeometry y="160" width="320" height="40" as="geometry" />
        </mxCell>
        <mxCell id="AGhPFDPTPKAuyDsu2DyO-278" value="예찬" style="fillColor=#23445D;strokeColor=#FFFFFF;strokeWidth=2;fontColor=#FFFFFF;fontStyle=1" vertex="1" parent="1">
          <mxGeometry x="320" y="160" width="320" height="40" as="geometry" />
        </mxCell>
        <mxCell id="AGhPFDPTPKAuyDsu2DyO-279" value="    = kd tree 활용해서 새로운 point cloud divider 제작&#xa;    - code review + refactoring [내일 오전]&#xa;&#xa;    - pair coding [같이]&#xa;&#xa;    = cmake&#xa;&#xa;    - 테스트 시나리오&#xa;    = 으뜸실렉트 테스트&#xa;&#xa;    = test bed 추가&#xa;        - kdtree&#xa;        - std::vector&lt;float&gt;&#xa;&#xa;" style="align=left;strokeColor=#DEEDFF;verticalAlign=top;horizontal=1;" vertex="1" parent="1">
          <mxGeometry x="320" y="200" width="320" height="210" as="geometry" />
        </mxCell>
        <mxCell id="AGhPFDPTPKAuyDsu2DyO-280" value="송미" style="fillColor=#23445D;strokeColor=#FFFFFF;strokeWidth=2;fontColor=#FFFFFF;fontStyle=1" vertex="1" parent="1">
          <mxGeometry x="640" y="160" width="320" height="40" as="geometry" />
        </mxCell>
        <mxCell id="AGhPFDPTPKAuyDsu2DyO-281" value="    = websocket&#xa;        - buffer draw&#xa;        - size set&#xa;        - mouse interaction&#xa;&#xa;    - class 화 / file name&#xa;&#xa;    - pragma region&#xa;&#xa;    - 전체 코드 정리&#xa;" style="align=left;strokeColor=#DEEDFF;verticalAlign=top;horizontal=1;" vertex="1" parent="1">
          <mxGeometry x="640" y="200" width="320" height="210" as="geometry" />
        </mxCell>
        <mxCell id="AGhPFDPTPKAuyDsu2DyO-282" value="현준" style="fillColor=#23445D;strokeColor=#FFFFFF;strokeWidth=2;fontColor=#FFFFFF;fontStyle=1" vertex="1" parent="1">
          <mxGeometry x="960" y="160" width="320" height="40" as="geometry" />
        </mxCell>
        <mxCell id="AGhPFDPTPKAuyDsu2DyO-283" value="    = 인스톨러 리서치&#xa;&#xa;    = 툴 리서치&#xa;&#xa;    = Pdf 확인&#xa;&#xa;    = 쿠버네티스 리서치&#xa;&#xa;&#xa;    = electron test 개발 환경 조성&#xa;" style="align=left;strokeColor=#DEEDFF;verticalAlign=top;horizontal=1;" vertex="1" parent="1">
          <mxGeometry x="960" y="200" width="320" height="210" as="geometry" />
        </mxCell>
        <mxCell id="AGhPFDPTPKAuyDsu2DyO-284" value="형주" style="fillColor=#23445D;strokeColor=#FFFFFF;strokeWidth=2;fontColor=#FFFFFF;fontStyle=1" vertex="1" parent="1">
          <mxGeometry x="1280" y="160" width="320" height="40" as="geometry" />
        </mxCell>
        <mxCell id="AGhPFDPTPKAuyDsu2DyO-285" value="    = ui 틀잡기&#xa;" style="align=left;strokeColor=#DEEDFF;verticalAlign=top;horizontal=1;" vertex="1" parent="1">
          <mxGeometry x="1280" y="200" width="320" height="210" as="geometry" />
        </mxCell>
      </root>
    </mxGraphModel>
  </diagram>
</mxfile>
